# xmcd
#
# Track frame offsets:
# 150
# 17246
# 33524
# 49882
# 63664
# 82338
# 100001
# 116079
# 134108
# 151148
# 168378
# 184328
# 207169
# 223870
# 246677
#
# Disc length: 3569 seconds
#
#
# Revision: 0
# Processed by: cddbd v1.5.1PL2 Copyright (c) Steve Scherf et al.
# Submitted via: FreeRIP 2.944 
#
DISCID=eb0def0f
DTITLE=Busta Rhymes - The Big Bang
DYEAR=2006
DGENRE=Hip-Hop
TTITLE0=Get You Some (feat. Q-Tip and Marsha Of Floetry)
TTITLE1=Touch It (feat. Swizz Beatz)
TTITLE2=How We Do It Over Here (feat. Missy Elliott)
TTITLE3=New York Shit (feat. Swizz Beatz)
TTITLE4=Been Through The Storm (feat. Stevie Wonder)
TTITLE5=In The Ghetto (feat. Rick James)
TTITLE6=Cocaina (feat. Marsha Of Floetry)
TTITLE7=You Can't Hold The Torch (feat. Q-Tip)
TTITLE8=Goldmine (feat. Raekwon)
TTITLE9=I Love My Bitch (feat. Kelis and Will.I.Am)
TTITLE10=Don't Get Carried Away (feat. Nas)
TTITLE11=They're Out To Get Me (feat. Mr. Porter)
TTITLE12=Get Down
TTITLE13=I'll Do It All (feat. Latoya Jackson)
TTITLE14=Legend Of The Fall Offs
EXTD=
EXTT0=
EXTT1=
EXTT2=
EXTT3=
EXTT4=
EXTT5=
EXTT6=
EXTT7=
EXTT8=
EXTT9=
EXTT10=
EXTT11=
EXTT12=
EXTT13=
EXTT14=
PLAYORDER=
